<?xml version="1.0" encoding="UTF-8" standalone="no"?><svg xmlns="http://www.w3.org/2000/svg" xmlns:xlink="http://www.w3.org/1999/xlink" contentStyleType="text/css" height="488.5417px" preserveAspectRatio="none" style="width:1278px;height:488px;" version="1.1" viewBox="0 0 1278 488" width="1278.125px" zoomAndPan="magnify"><defs><linearGradient id="g1vt2l1n0wjmvu0" x1="50%" x2="50%" y1="0%" y2="100%"><stop offset="0%" stop-color="#FFFFFF"/><stop offset="100%" stop-color="#EDF0F2"/></linearGradient><linearGradient id="g1vt2l1n0wjmvu1" x1="50%" x2="50%" y1="0%" y2="100%"><stop offset="0%" stop-color="#59B6EC"/><stop offset="100%" stop-color="#2FA4E7"/></linearGradient></defs><g><ellipse cx="646.875" cy="20.8333" fill="#033C73" rx="10.4167" ry="10.4167" style="stroke:#2683B9;stroke-width:1.0416666666666667;"/><polygon fill="url(#g1vt2l1n0wjmvu0)" points="620.3125,52.0833,673.4375,52.0833,685.9375,64.5833,673.4375,77.0833,620.3125,77.0833,607.8125,64.5833,620.3125,52.0833" style="stroke:#BABDBF;stroke-width:1.0416666666666667;"/><text fill="#343A40" font-family="Verdana" font-size="12.5" lengthAdjust="spacing" textLength="42.7083" x="625.5208" y="68.9107">Choice</text><rect fill="url(#g1vt2l1n0wjmvu1)" height="37.4674" rx="4.1667" ry="4.1667" style="stroke:#2FA4E7;stroke-width:1.0416666666666667;" width="93.75" x="40.625" y="127.7323"/><text fill="#FFFFFF" font-family="Verdana" font-size="12.5" lengthAdjust="spacing" textLength="70.8333" x="52.0833" y="150.7935">Account No</text><rect fill="url(#g1vt2l1n0wjmvu1)" height="37.4674" rx="4.1667" ry="4.1667" style="stroke:#2FA4E7;stroke-width:1.0416666666666667;" width="152.0833" x="11.4583" y="186.0331"/><text fill="#FFFFFF" font-family="Verdana" font-size="12.5" lengthAdjust="spacing" textLength="129.1667" x="22.9167" y="209.0942">Accont Holder Name</text><rect fill="url(#g1vt2l1n0wjmvu1)" height="37.4674" rx="4.1667" ry="4.1667" style="stroke:#2FA4E7;stroke-width:1.0416666666666667;" width="108.3333" x="33.3333" y="244.3339"/><text fill="#FFFFFF" font-family="Verdana" font-size="12.5" lengthAdjust="spacing" textLength="85.4167" x="44.7917" y="267.395">Account Type</text><rect fill="url(#g1vt2l1n0wjmvu1)" height="37.4674" rx="4.1667" ry="4.1667" style="stroke:#2FA4E7;stroke-width:1.0416666666666667;" width="105.2083" x="34.8958" y="302.6347"/><text fill="#FFFFFF" font-family="Verdana" font-size="12.5" lengthAdjust="spacing" textLength="82.2917" x="46.3542" y="325.6958">Initial Amount</text><rect fill="url(#g1vt2l1n0wjmvu1)" height="37.4674" rx="4.1667" ry="4.1667" style="stroke:#2FA4E7;stroke-width:1.0416666666666667;" width="127.0833" x="23.9583" y="360.9355"/><text fill="#FFFFFF" font-family="Verdana" font-size="12.5" lengthAdjust="spacing" textLength="104.1667" x="35.4167" y="383.9966">Account Created</text><rect fill="url(#g1vt2l1n0wjmvu1)" height="37.4674" rx="4.1667" ry="4.1667" style="stroke:#2FA4E7;stroke-width:1.0416666666666667;" width="93.75" x="209.375" y="127.7323"/><text fill="#FFFFFF" font-family="Verdana" font-size="12.5" lengthAdjust="spacing" textLength="70.8333" x="220.8333" y="150.7935">Account No</text><rect fill="url(#g1vt2l1n0wjmvu1)" height="37.4674" rx="4.1667" ry="4.1667" style="stroke:#2FA4E7;stroke-width:1.0416666666666667;" width="69.7917" x="221.3542" y="186.0331"/><text fill="#FFFFFF" font-family="Verdana" font-size="12.5" lengthAdjust="spacing" textLength="46.875" x="232.8125" y="209.0942">Amount</text><rect fill="url(#g1vt2l1n0wjmvu1)" height="37.4674" rx="4.1667" ry="4.1667" style="stroke:#2FA4E7;stroke-width:1.0416666666666667;" width="135.4167" x="188.5417" y="244.3339"/><text fill="#FFFFFF" font-family="Verdana" font-size="12.5" lengthAdjust="spacing" textLength="112.5" x="200" y="267.395">Deposit complete</text><rect fill="url(#g1vt2l1n0wjmvu1)" height="37.4674" rx="4.1667" ry="4.1667" style="stroke:#2FA4E7;stroke-width:1.0416666666666667;" width="93.75" x="359.8958" y="127.7323"/><text fill="#FFFFFF" font-family="Verdana" font-size="12.5" lengthAdjust="spacing" textLength="70.8333" x="371.3542" y="150.7935">Account No</text><rect fill="url(#g1vt2l1n0wjmvu1)" height="37.4674" rx="4.1667" ry="4.1667" style="stroke:#2FA4E7;stroke-width:1.0416666666666667;" width="69.7917" x="371.875" y="186.0331"/><text fill="#FFFFFF" font-family="Verdana" font-size="12.5" lengthAdjust="spacing" textLength="46.875" x="383.3333" y="209.0942">Amount</text><rect fill="url(#g1vt2l1n0wjmvu1)" height="37.4674" rx="4.1667" ry="4.1667" style="stroke:#2FA4E7;stroke-width:1.0416666666666667;" width="144.7917" x="334.375" y="244.3339"/><text fill="#FFFFFF" font-family="Verdana" font-size="12.5" lengthAdjust="spacing" textLength="121.875" x="345.8333" y="267.395">Withdraw complete</text><rect fill="url(#g1vt2l1n0wjmvu1)" height="37.4674" rx="4.1667" ry="4.1667" style="stroke:#2FA4E7;stroke-width:1.0416666666666667;" width="93.75" x="497.9167" y="127.7323"/><text fill="#FFFFFF" font-family="Verdana" font-size="12.5" lengthAdjust="spacing" textLength="70.8333" x="509.375" y="150.7935">Account No</text><rect fill="url(#g1vt2l1n0wjmvu1)" height="37.4674" rx="4.1667" ry="4.1667" style="stroke:#2FA4E7;stroke-width:1.0416666666666667;" width="110.4167" x="489.5833" y="186.0331"/><text fill="#FFFFFF" font-family="Verdana" font-size="12.5" lengthAdjust="spacing" textLength="87.5" x="501.0417" y="209.0942">Show Balance</text><rect fill="url(#g1vt2l1n0wjmvu1)" height="37.4674" rx="4.1667" ry="4.1667" style="stroke:#2FA4E7;stroke-width:1.0416666666666667;" width="82.2917" x="683.3333" y="127.7323"/><text fill="#FFFFFF" font-family="Verdana" font-size="12.5" lengthAdjust="spacing" textLength="59.375" x="694.7917" y="150.7935">Show List</text><rect fill="url(#g1vt2l1n0wjmvu1)" height="37.4674" rx="4.1667" ry="4.1667" style="stroke:#2FA4E7;stroke-width:1.0416666666666667;" width="95.8333" x="882.8125" y="127.7323"/><text fill="#FFFFFF" font-family="Verdana" font-size="12.5" lengthAdjust="spacing" textLength="72.9167" x="894.2708" y="150.7935">Account NO</text><rect fill="url(#g1vt2l1n0wjmvu1)" height="37.4674" rx="4.1667" ry="4.1667" style="stroke:#2FA4E7;stroke-width:1.0416666666666667;" width="120.8333" x="870.3125" y="186.0331"/><text fill="#FFFFFF" font-family="Verdana" font-size="12.5" lengthAdjust="spacing" textLength="97.9167" x="881.7708" y="209.0942">Account Closed</text><rect fill="url(#g1vt2l1n0wjmvu1)" height="37.4674" rx="4.1667" ry="4.1667" style="stroke:#2FA4E7;stroke-width:1.0416666666666667;" width="152.0833" x="1044.2708" y="127.7323"/><text fill="#FFFFFF" font-family="Verdana" font-size="12.5" lengthAdjust="spacing" textLength="129.1667" x="1055.7292" y="150.7935">Accont Holder Name</text><rect fill="url(#g1vt2l1n0wjmvu1)" height="37.4674" rx="4.1667" ry="4.1667" style="stroke:#2FA4E7;stroke-width:1.0416666666666667;" width="108.3333" x="1066.1458" y="186.0331"/><text fill="#FFFFFF" font-family="Verdana" font-size="12.5" lengthAdjust="spacing" textLength="85.4167" x="1077.6042" y="209.0942">Account Type</text><rect fill="url(#g1vt2l1n0wjmvu1)" height="37.4674" rx="4.1667" ry="4.1667" style="stroke:#2FA4E7;stroke-width:1.0416666666666667;" width="105.2083" x="1067.7083" y="244.3339"/><text fill="#FFFFFF" font-family="Verdana" font-size="12.5" lengthAdjust="spacing" textLength="82.2917" x="1079.1667" y="267.395">Initial Amount</text><rect fill="url(#g1vt2l1n0wjmvu1)" height="37.4674" rx="4.1667" ry="4.1667" style="stroke:#2FA4E7;stroke-width:1.0416666666666667;" width="77.0833" x="1081.7708" y="302.6347"/><text fill="#FFFFFF" font-family="Verdana" font-size="12.5" lengthAdjust="spacing" textLength="54.1667" x="1093.2292" y="325.6958">Modified</text><polygon fill="url(#g1vt2l1n0wjmvu0)" points="646.875,408.8196,646.875,408.8196,659.375,421.3196,646.875,433.8196,646.875,433.8196,634.375,421.3196,646.875,408.8196" style="stroke:#BABDBF;stroke-width:1.0416666666666667;"/><ellipse cx="646.875" cy="466.1112" fill="none" rx="11.4583" ry="11.4583" style="stroke:#2683B9;stroke-width:1.0416666666666667;"/><ellipse cx="646.875" cy="466.1112" fill="#2683B9" rx="6.25" ry="6.25" style="stroke:#13415C;stroke-width:1.0416666666666667;"/><line style="stroke:#2FA4E7;stroke-width:3.125;" x1="87.5" x2="87.5" y1="165.1998" y2="186.0331"/><polygon fill="#2FA4E7" points="83.3333,175.6165,87.5,186.0331,91.6667,175.6165,87.5,179.7831" style="stroke:#2FA4E7;stroke-width:1.0416666666666667;"/><line style="stroke:#2FA4E7;stroke-width:3.125;" x1="87.5" x2="87.5" y1="223.5006" y2="244.3339"/><polygon fill="#2FA4E7" points="83.3333,233.9172,87.5,244.3339,91.6667,233.9172,87.5,238.0839" style="stroke:#2FA4E7;stroke-width:1.0416666666666667;"/><line style="stroke:#2FA4E7;stroke-width:3.125;" x1="87.5" x2="87.5" y1="281.8014" y2="302.6347"/><polygon fill="#2FA4E7" points="83.3333,292.218,87.5,302.6347,91.6667,292.218,87.5,296.3847" style="stroke:#2FA4E7;stroke-width:1.0416666666666667;"/><line style="stroke:#2FA4E7;stroke-width:3.125;" x1="87.5" x2="87.5" y1="340.1021" y2="360.9355"/><polygon fill="#2FA4E7" points="83.3333,350.5188,87.5,360.9355,91.6667,350.5188,87.5,354.6855" style="stroke:#2FA4E7;stroke-width:1.0416666666666667;"/><line style="stroke:#2FA4E7;stroke-width:3.125;" x1="256.25" x2="256.25" y1="165.1998" y2="186.0331"/><polygon fill="#2FA4E7" points="252.0833,175.6165,256.25,186.0331,260.4167,175.6165,256.25,179.7831" style="stroke:#2FA4E7;stroke-width:1.0416666666666667;"/><line style="stroke:#2FA4E7;stroke-width:3.125;" x1="256.25" x2="256.25" y1="223.5006" y2="244.3339"/><polygon fill="#2FA4E7" points="252.0833,233.9172,256.25,244.3339,260.4167,233.9172,256.25,238.0839" style="stroke:#2FA4E7;stroke-width:1.0416666666666667;"/><line style="stroke:#2FA4E7;stroke-width:3.125;" x1="406.7708" x2="406.7708" y1="165.1998" y2="186.0331"/><polygon fill="#2FA4E7" points="402.6042,175.6165,406.7708,186.0331,410.9375,175.6165,406.7708,179.7831" style="stroke:#2FA4E7;stroke-width:1.0416666666666667;"/><line style="stroke:#2FA4E7;stroke-width:3.125;" x1="406.7708" x2="406.7708" y1="223.5006" y2="244.3339"/><polygon fill="#2FA4E7" points="402.6042,233.9172,406.7708,244.3339,410.9375,233.9172,406.7708,238.0839" style="stroke:#2FA4E7;stroke-width:1.0416666666666667;"/><line style="stroke:#2FA4E7;stroke-width:3.125;" x1="544.7917" x2="544.7917" y1="165.1998" y2="186.0331"/><polygon fill="#2FA4E7" points="540.625,175.6165,544.7917,186.0331,548.9583,175.6165,544.7917,179.7831" style="stroke:#2FA4E7;stroke-width:1.0416666666666667;"/><line style="stroke:#2FA4E7;stroke-width:3.125;" x1="930.7292" x2="930.7292" y1="165.1998" y2="186.0331"/><polygon fill="#2FA4E7" points="926.5625,175.6165,930.7292,186.0331,934.8958,175.6165,930.7292,179.7831" style="stroke:#2FA4E7;stroke-width:1.0416666666666667;"/><line style="stroke:#2FA4E7;stroke-width:3.125;" x1="1120.3125" x2="1120.3125" y1="165.1998" y2="186.0331"/><polygon fill="#2FA4E7" points="1116.1458,175.6165,1120.3125,186.0331,1124.4792,175.6165,1120.3125,179.7831" style="stroke:#2FA4E7;stroke-width:1.0416666666666667;"/><line style="stroke:#2FA4E7;stroke-width:3.125;" x1="1120.3125" x2="1120.3125" y1="223.5006" y2="244.3339"/><polygon fill="#2FA4E7" points="1116.1458,233.9172,1120.3125,244.3339,1124.4792,233.9172,1120.3125,238.0839" style="stroke:#2FA4E7;stroke-width:1.0416666666666667;"/><line style="stroke:#2FA4E7;stroke-width:3.125;" x1="1120.3125" x2="1120.3125" y1="281.8014" y2="302.6347"/><polygon fill="#2FA4E7" points="1116.1458,292.218,1120.3125,302.6347,1124.4792,292.218,1120.3125,296.3847" style="stroke:#2FA4E7;stroke-width:1.0416666666666667;"/><line style="stroke:#2FA4E7;stroke-width:3.125;" x1="607.8125" x2="87.5" y1="64.5833" y2="64.5833"/><line style="stroke:#2FA4E7;stroke-width:3.125;" x1="87.5" x2="87.5" y1="64.5833" y2="127.7323"/><polygon fill="#2FA4E7" points="83.3333,117.3157,87.5,127.7323,91.6667,117.3157,87.5,121.4823" style="stroke:#2FA4E7;stroke-width:1.0416666666666667;"/><text fill="#343A40" font-family="Verdana" font-size="12.5" lengthAdjust="spacing" textLength="81.25" x="92.7083" y="105.3365">New Account</text><line style="stroke:#2FA4E7;stroke-width:3.125;" x1="685.9375" x2="1230.7292" y1="64.5833" y2="64.5833"/><line style="stroke:#2FA4E7;stroke-width:3.125;" x1="1230.7292" x2="1230.7292" y1="64.5833" y2="421.3196"/><line style="stroke:#2FA4E7;stroke-width:3.125;" x1="1230.7292" x2="659.375" y1="421.3196" y2="421.3196"/><polygon fill="#2FA4E7" points="669.7917,417.1529,659.375,421.3196,669.7917,425.4862,665.625,421.3196" style="stroke:#2FA4E7;stroke-width:1.0416666666666667;"/><text fill="#343A40" font-family="Verdana" font-size="12.5" lengthAdjust="spacing" textLength="21.875" x="1240.1042" y="68.9107">Exit</text><line style="stroke:#2FA4E7;stroke-width:3.125;" x1="256.25" x2="256.25" y1="64.5833" y2="127.7323"/><polygon fill="#2FA4E7" points="252.0833,117.3157,256.25,127.7323,260.4167,117.3157,256.25,121.4823" style="stroke:#2FA4E7;stroke-width:1.0416666666666667;"/><text fill="#343A40" font-family="Verdana" font-size="12.5" lengthAdjust="spacing" textLength="48.9583" x="265.625" y="100.1282">Deposit</text><line style="stroke:#2FA4E7;stroke-width:3.125;" x1="406.7708" x2="406.7708" y1="64.5833" y2="127.7323"/><polygon fill="#2FA4E7" points="402.6042,117.3157,406.7708,127.7323,410.9375,117.3157,406.7708,121.4823" style="stroke:#2FA4E7;stroke-width:1.0416666666666667;"/><text fill="#343A40" font-family="Verdana" font-size="12.5" lengthAdjust="spacing" textLength="58.3333" x="416.1458" y="100.1282">Withdraw</text><line style="stroke:#2FA4E7;stroke-width:3.125;" x1="544.7917" x2="544.7917" y1="64.5833" y2="127.7323"/><polygon fill="#2FA4E7" points="540.625,117.3157,544.7917,127.7323,548.9583,117.3157,544.7917,121.4823" style="stroke:#2FA4E7;stroke-width:1.0416666666666667;"/><text fill="#343A40" font-family="Verdana" font-size="12.5" lengthAdjust="spacing" textLength="98.9583" x="554.1667" y="100.1282">Balance Enquiry</text><line style="stroke:#2FA4E7;stroke-width:3.125;" x1="724.4792" x2="724.4792" y1="64.5833" y2="127.7323"/><polygon fill="#2FA4E7" points="720.3125,117.3157,724.4792,127.7323,728.6458,117.3157,724.4792,121.4823" style="stroke:#2FA4E7;stroke-width:1.0416666666666667;"/><text fill="#343A40" font-family="Verdana" font-size="12.5" lengthAdjust="spacing" textLength="121.875" x="733.8542" y="100.1282">Account Holder List</text><line style="stroke:#2FA4E7;stroke-width:3.125;" x1="930.7292" x2="930.7292" y1="64.5833" y2="127.7323"/><polygon fill="#2FA4E7" points="926.5625,117.3157,930.7292,127.7323,934.8958,117.3157,930.7292,121.4823" style="stroke:#2FA4E7;stroke-width:1.0416666666666667;"/><text fill="#343A40" font-family="Verdana" font-size="12.5" lengthAdjust="spacing" textLength="89.5833" x="940.1042" y="100.1282">Close Account</text><line style="stroke:#2FA4E7;stroke-width:3.125;" x1="1120.3125" x2="1120.3125" y1="64.5833" y2="127.7323"/><polygon fill="#2FA4E7" points="1116.1458,117.3157,1120.3125,127.7323,1124.4792,117.3157,1120.3125,121.4823" style="stroke:#2FA4E7;stroke-width:1.0416666666666667;"/><text fill="#343A40" font-family="Verdana" font-size="12.5" lengthAdjust="spacing" textLength="95.8333" x="1129.6875" y="100.1282">Modify Account</text><line style="stroke:#2FA4E7;stroke-width:3.125;" x1="87.5" x2="87.5" y1="398.4029" y2="421.3196"/><line style="stroke:#2FA4E7;stroke-width:3.125;" x1="87.5" x2="634.375" y1="421.3196" y2="421.3196"/><polygon fill="#2FA4E7" points="623.9583,417.1529,634.375,421.3196,623.9583,425.4862,628.125,421.3196" style="stroke:#2FA4E7;stroke-width:1.0416666666666667;"/><line style="stroke:#2FA4E7;stroke-width:3.125;" x1="256.25" x2="256.25" y1="281.8014" y2="421.3196"/><polygon fill="#2FA4E7" points="252.0833,410.9029,256.25,421.3196,260.4167,410.9029,256.25,415.0696" style="stroke:#2FA4E7;stroke-width:1.0416666666666667;"/><line style="stroke:#2FA4E7;stroke-width:3.125;" x1="406.7708" x2="406.7708" y1="281.8014" y2="421.3196"/><polygon fill="#2FA4E7" points="402.6042,410.9029,406.7708,421.3196,410.9375,410.9029,406.7708,415.0696" style="stroke:#2FA4E7;stroke-width:1.0416666666666667;"/><line style="stroke:#2FA4E7;stroke-width:3.125;" x1="544.7917" x2="544.7917" y1="223.5006" y2="421.3196"/><polygon fill="#2FA4E7" points="540.625,410.9029,544.7917,421.3196,548.9583,410.9029,544.7917,415.0696" style="stroke:#2FA4E7;stroke-width:1.0416666666666667;"/><line style="stroke:#2FA4E7;stroke-width:3.125;" x1="724.4792" x2="724.4792" y1="165.1998" y2="421.3196"/><polygon fill="#2FA4E7" points="720.3125,410.9029,724.4792,421.3196,728.6458,410.9029,724.4792,415.0696" style="stroke:#2FA4E7;stroke-width:1.0416666666666667;"/><line style="stroke:#2FA4E7;stroke-width:3.125;" x1="930.7292" x2="930.7292" y1="223.5006" y2="421.3196"/><polygon fill="#2FA4E7" points="926.5625,410.9029,930.7292,421.3196,934.8958,410.9029,930.7292,415.0696" style="stroke:#2FA4E7;stroke-width:1.0416666666666667;"/><line style="stroke:#2FA4E7;stroke-width:3.125;" x1="1120.3125" x2="1120.3125" y1="340.1021" y2="421.3196"/><polygon fill="#2FA4E7" points="1116.1458,410.9029,1120.3125,421.3196,1124.4792,410.9029,1120.3125,415.0696" style="stroke:#2FA4E7;stroke-width:1.0416666666666667;"/><line style="stroke:#2FA4E7;stroke-width:3.125;" x1="646.875" x2="646.875" y1="31.25" y2="52.0833"/><polygon fill="#2FA4E7" points="642.7083,41.6667,646.875,52.0833,651.0417,41.6667,646.875,45.8333" style="stroke:#2FA4E7;stroke-width:1.0416666666666667;"/><line style="stroke:#2FA4E7;stroke-width:3.125;" x1="646.875" x2="646.875" y1="433.8196" y2="454.6529"/><polygon fill="#2FA4E7" points="642.7083,444.2362,646.875,454.6529,651.0417,444.2362,646.875,448.4029" style="stroke:#2FA4E7;stroke-width:1.0416666666666667;"/><!--SRC=[fPB1QiCm38RlVWhjrhp2SkhImWPhTjYWPsEhME1OcQsGvUsRj77IGcux6PbFdynllOZ31i5Wx3pge9BeA2hr9CR1hd9C1WjbT4BOrTZ3tXZkWa2X05vpKNEPox5wPsynGgqRB1-fdw6zNtm44j8Uzirq_yHK4RMWBTKy4WxOSg9n7cmDN0MPCzoq7WLNmvd4sQZxxIUlXeLR5RFXJNiT3C8n_7OKXqtHj-C-WqjZPkP4FYdDmTtegLpGolDuRgVxzHpHHDgbySIMBaFkBFxv3pSRFUYFVrFu2eEzxyIu8DnU0G00]--></g></svg>