<?xml version="1.0" encoding="UTF-8" standalone="no"?><svg xmlns="http://www.w3.org/2000/svg" xmlns:xlink="http://www.w3.org/1999/xlink" contentStyleType="text/css" height="626.0417px" preserveAspectRatio="none" style="width:698px;height:626px;" version="1.1" viewBox="0 0 698 626" width="698.9583px" zoomAndPan="magnify"><defs><linearGradient id="gv34o6p2s9jjc0" x1="50%" x2="50%" y1="0%" y2="100%"><stop offset="0%" stop-color="#FFFFFF"/><stop offset="100%" stop-color="#EEEEEE"/></linearGradient><linearGradient id="gv34o6p2s9jjc1" x1="50%" x2="50%" y1="0%" y2="100%"><stop offset="0%" stop-color="#F18E3E"/><stop offset="100%" stop-color="#EC7211"/></linearGradient></defs><g><rect fill="url(#gv34o6p2s9jjc0)" height="45.0846" id="_title" rx="4.1667" ry="4.1667" style="stroke:#EEEEEE;stroke-width:1.0416666666666667;" width="238.5417" x="222.9167" y="5.2083"/><text fill="#EC7211" font-family="&quot;Verdana&quot;" font-size="20.8333" font-weight="bold" lengthAdjust="spacing" textLength="217.7083" x="233.3333" y="34.963">Use Case Diagram</text><!--cluster Bank-Management-system--><g id="cluster_Bank-Management-system"><rect fill="none" height="556.25" rx="4.1667" ry="4.1667" style="stroke:#4E5D6C;stroke-width:2.0833333333333335;" width="500" x="90.625" y="63.8346"/><text fill="#4E5D6C" font-family="&quot;Verdana&quot;" font-size="12.5" font-weight="bold" lengthAdjust="spacing" textLength="201.0417" x="240.1042" y="82.7291">Bank-Management-system</text></g><g id="elem_CP"><ellipse cx="512.3557" cy="362.7393" fill="url(#gv34o6p2s9jjc1)" rx="61.314" ry="20.7797" style="stroke:#EC7211;stroke-width:2.0833333333333335;"/><text fill="#FFFFFF" font-family="&quot;Verdana&quot;" font-size="12.5" lengthAdjust="spacing" textLength="59.375" x="482.6682" y="364.9833">Check Pin</text></g><g id="elem_CA"><ellipse cx="219.3856" cy="557.531" fill="url(#gv34o6p2s9jjc1)" rx="87.0939" ry="20.7797" style="stroke:#EC7211;stroke-width:2.0833333333333335;"/><text fill="#FFFFFF" font-family="&quot;Verdana&quot;" font-size="12.5" lengthAdjust="spacing" textLength="95.8333" x="171.4689" y="559.775">Create Account</text></g><g id="elem_DP"><ellipse cx="219.0525" cy="245.031" fill="url(#gv34o6p2s9jjc1)" rx="53.9483" ry="20.7797" style="stroke:#EC7211;stroke-width:2.0833333333333335;"/><text fill="#FFFFFF" font-family="&quot;Verdana&quot;" font-size="12.5" lengthAdjust="spacing" textLength="48.9583" x="194.5733" y="247.275">Deposit</text></g><g id="elem_WD"><ellipse cx="219.4316" cy="323.156" fill="url(#gv34o6p2s9jjc1)" rx="60.5774" ry="20.7797" style="stroke:#EC7211;stroke-width:2.0833333333333335;"/><text fill="#FFFFFF" font-family="&quot;Verdana&quot;" font-size="12.5" lengthAdjust="spacing" textLength="58.3333" x="190.2649" y="325.4">Withdraw</text></g><g id="elem_CB"><ellipse cx="219.0435" cy="401.281" fill="url(#gv34o6p2s9jjc1)" rx="84.1477" ry="20.7797" style="stroke:#EC7211;stroke-width:2.0833333333333335;"/><text fill="#FFFFFF" font-family="&quot;Verdana&quot;" font-size="12.5" lengthAdjust="spacing" textLength="91.6667" x="173.2102" y="403.525">Check Balance</text></g><g id="elem_MACC"><ellipse cx="219.3856" cy="479.406" fill="url(#gv34o6p2s9jjc1)" rx="87.0939" ry="20.7797" style="stroke:#EC7211;stroke-width:2.0833333333333335;"/><text fill="#FFFFFF" font-family="&quot;Verdana&quot;" font-size="12.5" lengthAdjust="spacing" textLength="95.8333" x="171.4689" y="481.65">Modify Account</text></g><g id="elem_CACC"><ellipse cx="219.1328" cy="166.906" fill="url(#gv34o6p2s9jjc1)" rx="82.6745" ry="20.7797" style="stroke:#EC7211;stroke-width:2.0833333333333335;"/><text fill="#FFFFFF" font-family="&quot;Verdana&quot;" font-size="12.5" lengthAdjust="spacing" textLength="89.5833" x="174.3412" y="169.15">Close Account</text></g><!--entity User--><g id="elem_User"><ellipse cx="21.3542" cy="327.8971" fill="url(#gv34o6p2s9jjc1)" rx="8.3333" ry="8.3333" style="stroke:#EC7211;stroke-width:1.0416666666666667;"/><path d="M21.3542,336.2305 L21.3542,364.3555 M7.8125,344.5638 L34.8958,344.5638 M21.3542,364.3555 L7.8125,379.9805 M21.3542,364.3555 L34.8958,379.9805 " fill="none" style="stroke:#EC7211;stroke-width:1.0416666666666667;"/><text fill="#4E5D6C" font-family="&quot;Verdana&quot;" font-size="12.5" lengthAdjust="spacing" textLength="30.2083" x="6.25" y="398.8749">User</text></g><!--entity System--><g id="elem_System"><ellipse cx="668.2292" cy="450.8138" fill="url(#gv34o6p2s9jjc1)" rx="8.3333" ry="8.3333" style="stroke:#EC7211;stroke-width:1.0416666666666667;"/><path d="M668.2292,459.1471 L668.2292,487.2721 M654.6875,467.4805 L681.7708,467.4805 M668.2292,487.2721 L654.6875,502.8971 M668.2292,487.2721 L681.7708,502.8971 " fill="none" style="stroke:#EC7211;stroke-width:1.0416666666666667;"/><text fill="#4E5D6C" font-family="&quot;Verdana&quot;" font-size="12.5" lengthAdjust="spacing" textLength="46.875" x="644.7917" y="521.7916">System</text></g><!--link User to CA--><g id="link_User_CA"><path d="M28.4365,407.268 C35.495,442.344 50.555,490.0346 82.2917,519.043 C98.4066,533.7723 119.7469,542.9185 140.7313,548.5833 " fill="none" id="User-CA" style="stroke:#EC7211;stroke-width:3.125;"/></g><!--link User to DP--><g id="link_User_DP"><path d="M41.7353,327.7836 C51.9426,312.2221 65.7878,294.9096 82.2917,283.6263 C107.5031,266.3898 140.3438,256.8023 167.4302,251.5013 " fill="none" id="User-DP" style="stroke:#EC7211;stroke-width:3.125;"/></g><!--link User to WD--><g id="link_User_WD"><path d="M41.8891,358.8523 C70.7193,353.0253 125.726,341.9065 166.6719,333.6305 " fill="none" id="User-WD" style="stroke:#EC7211;stroke-width:3.125;"/></g><!--link User to CB--><g id="link_User_CB"><path d="M41.8891,366.6294 C67.5267,371.6753 113.8646,380.7951 152.6063,388.4201 " fill="none" id="User-CB" style="stroke:#EC7211;stroke-width:3.125;"/></g><!--link User to CACC--><g id="link_User_CACC"><path d="M28.2845,318.3846 C35.2651,283.0451 50.2951,234.8117 82.2917,205.5013 C99.0233,190.1742 121.4115,180.8909 143.1844,175.2857 " fill="none" id="User-CACC" style="stroke:#EC7211;stroke-width:3.125;"/></g><!--link User to MACC--><g id="link_User_MACC"><path d="M41.827,397.3409 C52.0544,412.6961 65.89,429.7815 82.2917,440.918 C101.1654,453.7336 124.2667,462.3242 146.0323,468.068 " fill="none" id="User-MACC" style="stroke:#EC7211;stroke-width:3.125;"/></g><!--link CP to System--><g id="link_CP_System"><path d="M537.549,381.9992 C565.1479,404.0773 610.3729,440.2586 639.4521,463.5211 " fill="none" id="CP-System" style="stroke:#EC7211;stroke-width:3.125;"/></g><!--link CA to System--><g id="link_CA_System"><path d="M306.5208,557.3912 C384.3385,555.2122 501.2646,546.9178 598.9583,519.043 C612.9031,515.0638 627.4615,508.3503 639.5313,501.9867 " fill="none" id="CA-System" style="stroke:#EC7211;stroke-width:3.125;"/></g><!--link DP to CP--><g id="link_DP_CP"><path d="M267.1823,255.1367 C308.4667,264.8961 369.6594,281.5878 419.7917,304.4596 C441.625,314.4201 464.3958,328.8867 481.7802,340.9211 " fill="none" id="DP-to-CP" style="stroke:#EC7211;stroke-width:3.125;stroke-dasharray:7.0,7.0;"/><polygon fill="#EC7211" points="486.0802,343.9242,480.7791,335.1407,481.8099,340.9424,476.0082,341.9733,486.0802,343.9242" style="stroke:#EC7211;stroke-width:3.125;"/><text fill="#4E5D6C" font-family="&quot;Verdana&quot;" font-size="12.5" lengthAdjust="spacing" textLength="67.7083" x="345.8333" y="267.1041">«includes»</text></g><!--link WD to CP--><g id="link_WD_CP"><path d="M275.7604,330.7482 C325.5271,337.5138 398.4625,347.4305 449.9938,354.4367 " fill="none" id="WD-to-CP" style="stroke:#EC7211;stroke-width:3.125;stroke-dasharray:7.0,7.0;"/><polygon fill="#EC7211" points="455.225,355.1482,446.4976,349.7553,450.0642,354.4458,445.3737,358.0125,455.225,355.1482" style="stroke:#EC7211;stroke-width:3.125;"/><text fill="#4E5D6C" font-family="&quot;Verdana&quot;" font-size="12.5" lengthAdjust="spacing" textLength="67.7083" x="345.8333" y="330.6458">«includes»</text></g><!--link CB to CP--><g id="link_CB_CP"><path d="M302.0063,405.8065 C338.3646,406.2159 381.5229,404.5211 419.7917,397.168 C436.7375,393.9117 454.6594,387.8326 470.1177,381.6805 " fill="none" id="CB-to-CP" style="stroke:#EC7211;stroke-width:3.125;stroke-dasharray:7.0,7.0;"/><polygon fill="#EC7211" points="475.2604,379.5951,465.0068,379.2555,470.4336,381.5517,468.1374,386.9784,475.2604,379.5951" style="stroke:#EC7211;stroke-width:3.125;"/><text fill="#4E5D6C" font-family="&quot;Verdana&quot;" font-size="12.5" lengthAdjust="spacing" textLength="67.7083" x="345.8333" y="388.9791">«includes»</text></g><!--link MACC to CP--><g id="link_MACC_CP"><path d="M300.8625,472.1898 C338.3927,466.5471 382.8167,456.5451 419.7917,438.8346 C446.4906,426.0461 471.9979,403.7773 489.2948,386.6326 " fill="none" id="MACC-to-CP" style="stroke:#EC7211;stroke-width:3.125;stroke-dasharray:7.0,7.0;"/><polygon fill="#EC7211" points="493.075,382.8378,483.5071,386.5399,489.3996,386.528,489.4115,392.4206,493.075,382.8378" style="stroke:#EC7211;stroke-width:3.125;"/><text fill="#4E5D6C" font-family="&quot;Verdana&quot;" font-size="12.5" lengthAdjust="spacing" textLength="67.7083" x="345.8333" y="430.6458">«includes»</text></g><!--link CACC to CP--><g id="link_CACC_CP"><path d="M283.9594,180.2315 C325.7,191.2857 379.7542,210.2773 419.7917,240.918 C454.375,267.3846 482.3604,310.1544 497.949,337.3503 " fill="none" id="CACC-to-CP" style="stroke:#EC7211;stroke-width:3.125;stroke-dasharray:7.0,7.0;"/><polygon fill="#EC7211" points="500.5292,341.9076,499.5375,331.6964,497.9637,337.3749,492.2852,335.8011,500.5292,341.9076" style="stroke:#EC7211;stroke-width:3.125;"/><text fill="#4E5D6C" font-family="&quot;Verdana&quot;" font-size="12.5" lengthAdjust="spacing" textLength="67.7083" x="345.8333" y="192.1041">«includes»</text></g><!--SRC=[TL31QiCm3BtxAxJRTiW-O9H0wbm3WJ9o5ewQc2Hsi5LA6VttoKqoih7wO9xqfFUU_S8zJGHuZPaFw3fIR7aa-8m46kKgBNO19wL6EZEmXs2xdg6rWGnRxrGSh9jHHc16Cs179xw9GA9tNEonzLVhEZZZ64afDEn3iWahFDqYa_YaHGaY4aTqGrQX4ys976VnCG5V2kImxqYoXxLyrO6G2GfZ_CNn6s04NInKIREFTkcLzT9hBFTjmEkZsPIhHazc4DiHdQ55uWYmS9LlxVdsIxygj5uNHn__Ug_SVIzTMxUmjRehbHuFMPPoRb3YRL12_GmSTxEYknMF0BfESFqzNUoAieRtB1Sp-833mJepNbgAUQwQyWaXp_sVI4xFTfvItm00]--></g></svg>